%TF.GenerationSoftware,KiCad,Pcbnew,(6.0.4-0)*%
%TF.CreationDate,2022-04-21T19:16:39-04:00*%
%TF.ProjectId,msp_stuff,6d73705f-7374-4756-9666-2e6b69636164,rev?*%
%TF.SameCoordinates,Original*%
%TF.FileFunction,Legend,Top*%
%TF.FilePolarity,Positive*%
%FSLAX46Y46*%
G04 Gerber Fmt 4.6, Leading zero omitted, Abs format (unit mm)*
G04 Created by KiCad (PCBNEW (6.0.4-0)) date 2022-04-21 19:16:39*
%MOMM*%
%LPD*%
G01*
G04 APERTURE LIST*
%ADD10C,0.150000*%
%ADD11C,0.120000*%
G04 APERTURE END LIST*
D10*
%TO.C,REF\u002A\u002A*%
X156862380Y-101663333D02*
X156386190Y-101996666D01*
X156862380Y-102234761D02*
X155862380Y-102234761D01*
X155862380Y-101853809D01*
X155910000Y-101758571D01*
X155957619Y-101710952D01*
X156052857Y-101663333D01*
X156195714Y-101663333D01*
X156290952Y-101710952D01*
X156338571Y-101758571D01*
X156386190Y-101853809D01*
X156386190Y-102234761D01*
X156338571Y-101234761D02*
X156338571Y-100901428D01*
X156862380Y-100758571D02*
X156862380Y-101234761D01*
X155862380Y-101234761D01*
X155862380Y-100758571D01*
X156338571Y-99996666D02*
X156338571Y-100330000D01*
X156862380Y-100330000D02*
X155862380Y-100330000D01*
X155862380Y-99853809D01*
X155862380Y-99330000D02*
X156100476Y-99330000D01*
X156005238Y-99568095D02*
X156100476Y-99330000D01*
X156005238Y-99091904D01*
X156290952Y-99472857D02*
X156100476Y-99330000D01*
X156290952Y-99187142D01*
X155862380Y-98568095D02*
X156100476Y-98568095D01*
X156005238Y-98806190D02*
X156100476Y-98568095D01*
X156005238Y-98330000D01*
X156290952Y-98710952D02*
X156100476Y-98568095D01*
X156290952Y-98425238D01*
X156892380Y-147383333D02*
X156416190Y-147716666D01*
X156892380Y-147954761D02*
X155892380Y-147954761D01*
X155892380Y-147573809D01*
X155940000Y-147478571D01*
X155987619Y-147430952D01*
X156082857Y-147383333D01*
X156225714Y-147383333D01*
X156320952Y-147430952D01*
X156368571Y-147478571D01*
X156416190Y-147573809D01*
X156416190Y-147954761D01*
X156368571Y-146954761D02*
X156368571Y-146621428D01*
X156892380Y-146478571D02*
X156892380Y-146954761D01*
X155892380Y-146954761D01*
X155892380Y-146478571D01*
X156368571Y-145716666D02*
X156368571Y-146050000D01*
X156892380Y-146050000D02*
X155892380Y-146050000D01*
X155892380Y-145573809D01*
X155892380Y-145050000D02*
X156130476Y-145050000D01*
X156035238Y-145288095D02*
X156130476Y-145050000D01*
X156035238Y-144811904D01*
X156320952Y-145192857D02*
X156130476Y-145050000D01*
X156320952Y-144907142D01*
X155892380Y-144288095D02*
X156130476Y-144288095D01*
X156035238Y-144526190D02*
X156130476Y-144288095D01*
X156035238Y-144050000D01*
X156320952Y-144430952D02*
X156130476Y-144288095D01*
X156320952Y-144145238D01*
X148506666Y-136547380D02*
X148173333Y-136071190D01*
X147935238Y-136547380D02*
X147935238Y-135547380D01*
X148316190Y-135547380D01*
X148411428Y-135595000D01*
X148459047Y-135642619D01*
X148506666Y-135737857D01*
X148506666Y-135880714D01*
X148459047Y-135975952D01*
X148411428Y-136023571D01*
X148316190Y-136071190D01*
X147935238Y-136071190D01*
X148935238Y-136023571D02*
X149268571Y-136023571D01*
X149411428Y-136547380D02*
X148935238Y-136547380D01*
X148935238Y-135547380D01*
X149411428Y-135547380D01*
X150173333Y-136023571D02*
X149840000Y-136023571D01*
X149840000Y-136547380D02*
X149840000Y-135547380D01*
X150316190Y-135547380D01*
X150840000Y-135547380D02*
X150840000Y-135785476D01*
X150601904Y-135690238D02*
X150840000Y-135785476D01*
X151078095Y-135690238D01*
X150697142Y-135975952D02*
X150840000Y-135785476D01*
X150982857Y-135975952D01*
X151601904Y-135547380D02*
X151601904Y-135785476D01*
X151363809Y-135690238D02*
X151601904Y-135785476D01*
X151840000Y-135690238D01*
X151459047Y-135975952D02*
X151601904Y-135785476D01*
X151744761Y-135975952D01*
%TO.C,R2*%
X98893333Y-100232380D02*
X98560000Y-99756190D01*
X98321904Y-100232380D02*
X98321904Y-99232380D01*
X98702857Y-99232380D01*
X98798095Y-99280000D01*
X98845714Y-99327619D01*
X98893333Y-99422857D01*
X98893333Y-99565714D01*
X98845714Y-99660952D01*
X98798095Y-99708571D01*
X98702857Y-99756190D01*
X98321904Y-99756190D01*
X99274285Y-99327619D02*
X99321904Y-99280000D01*
X99417142Y-99232380D01*
X99655238Y-99232380D01*
X99750476Y-99280000D01*
X99798095Y-99327619D01*
X99845714Y-99422857D01*
X99845714Y-99518095D01*
X99798095Y-99660952D01*
X99226666Y-100232380D01*
X99845714Y-100232380D01*
%TO.C,U1*%
X85878095Y-106014880D02*
X85878095Y-106824404D01*
X85925714Y-106919642D01*
X85973333Y-106967261D01*
X86068571Y-107014880D01*
X86259047Y-107014880D01*
X86354285Y-106967261D01*
X86401904Y-106919642D01*
X86449523Y-106824404D01*
X86449523Y-106014880D01*
X87449523Y-107014880D02*
X86878095Y-107014880D01*
X87163809Y-107014880D02*
X87163809Y-106014880D01*
X87068571Y-106157738D01*
X86973333Y-106252976D01*
X86878095Y-106300595D01*
%TO.C,RV1*%
X116999761Y-96282380D02*
X116666428Y-95806190D01*
X116428333Y-96282380D02*
X116428333Y-95282380D01*
X116809285Y-95282380D01*
X116904523Y-95330000D01*
X116952142Y-95377619D01*
X116999761Y-95472857D01*
X116999761Y-95615714D01*
X116952142Y-95710952D01*
X116904523Y-95758571D01*
X116809285Y-95806190D01*
X116428333Y-95806190D01*
X117285476Y-95282380D02*
X117618809Y-96282380D01*
X117952142Y-95282380D01*
X118809285Y-96282380D02*
X118237857Y-96282380D01*
X118523571Y-96282380D02*
X118523571Y-95282380D01*
X118428333Y-95425238D01*
X118333095Y-95520476D01*
X118237857Y-95568095D01*
%TO.C,R1*%
X98893333Y-104042380D02*
X98560000Y-103566190D01*
X98321904Y-104042380D02*
X98321904Y-103042380D01*
X98702857Y-103042380D01*
X98798095Y-103090000D01*
X98845714Y-103137619D01*
X98893333Y-103232857D01*
X98893333Y-103375714D01*
X98845714Y-103470952D01*
X98798095Y-103518571D01*
X98702857Y-103566190D01*
X98321904Y-103566190D01*
X99845714Y-104042380D02*
X99274285Y-104042380D01*
X99560000Y-104042380D02*
X99560000Y-103042380D01*
X99464761Y-103185238D01*
X99369523Y-103280476D01*
X99274285Y-103328095D01*
%TO.C,R3*%
X98893333Y-96422380D02*
X98560000Y-95946190D01*
X98321904Y-96422380D02*
X98321904Y-95422380D01*
X98702857Y-95422380D01*
X98798095Y-95470000D01*
X98845714Y-95517619D01*
X98893333Y-95612857D01*
X98893333Y-95755714D01*
X98845714Y-95850952D01*
X98798095Y-95898571D01*
X98702857Y-95946190D01*
X98321904Y-95946190D01*
X99226666Y-95422380D02*
X99845714Y-95422380D01*
X99512380Y-95803333D01*
X99655238Y-95803333D01*
X99750476Y-95850952D01*
X99798095Y-95898571D01*
X99845714Y-95993809D01*
X99845714Y-96231904D01*
X99798095Y-96327142D01*
X99750476Y-96374761D01*
X99655238Y-96422380D01*
X99369523Y-96422380D01*
X99274285Y-96374761D01*
X99226666Y-96327142D01*
D11*
%TO.C,REF\u002A\u002A*%
X154970000Y-100330000D02*
X154970000Y-101660000D01*
X154970000Y-101660000D02*
X153640000Y-101660000D01*
X152370000Y-101660000D02*
X129450000Y-101660000D01*
X152370000Y-99000000D02*
X152370000Y-101660000D01*
X129450000Y-99000000D02*
X129450000Y-101660000D01*
X152370000Y-99000000D02*
X129450000Y-99000000D01*
X112970000Y-151070000D02*
X112970000Y-151190000D01*
X115630000Y-148530000D02*
X115630000Y-149860000D01*
X115630000Y-151070000D02*
X115630000Y-151190000D01*
X114300000Y-148530000D02*
X115630000Y-148530000D01*
X112970000Y-151190000D02*
X115630000Y-151190000D01*
X152400000Y-144720000D02*
X129480000Y-144720000D01*
X152400000Y-147380000D02*
X129480000Y-147380000D01*
X155000000Y-147380000D02*
X153670000Y-147380000D01*
X155000000Y-146050000D02*
X155000000Y-147380000D01*
X129480000Y-144720000D02*
X129480000Y-147380000D01*
X152400000Y-144720000D02*
X152400000Y-147380000D01*
%TO.C,D3*%
X91770000Y-96655000D02*
X87710000Y-96655000D01*
X87710000Y-96655000D02*
X87710000Y-98925000D01*
X87710000Y-98925000D02*
X91770000Y-98925000D01*
%TO.C,REF\u002A\u002A*%
X146920000Y-132965000D02*
X146570000Y-132965000D01*
X155550000Y-133590240D02*
X146920000Y-133590240D01*
X146920000Y-131145000D02*
X146510000Y-131145000D01*
X146920000Y-134655000D02*
X146920000Y-119295000D01*
X155550000Y-132291195D02*
X146920000Y-132291195D01*
X155550000Y-132055000D02*
X146920000Y-132055000D01*
X155550000Y-132409290D02*
X146920000Y-132409290D01*
X146920000Y-133685000D02*
X146570000Y-133685000D01*
X146920000Y-126065000D02*
X146510000Y-126065000D01*
X155550000Y-132645480D02*
X146920000Y-132645480D01*
X155550000Y-126975000D02*
X146920000Y-126975000D01*
X155550000Y-134535000D02*
X146920000Y-134535000D01*
X155550000Y-129515000D02*
X146920000Y-129515000D01*
X155550000Y-134416905D02*
X146920000Y-134416905D01*
X155550000Y-134655000D02*
X146920000Y-134655000D01*
X155550000Y-133472145D02*
X146920000Y-133472145D01*
X146920000Y-120985000D02*
X146510000Y-120985000D01*
X146920000Y-120265000D02*
X146510000Y-120265000D01*
X155550000Y-133117860D02*
X146920000Y-133117860D01*
X145460000Y-134655000D02*
X144350000Y-134655000D01*
X146920000Y-130425000D02*
X146510000Y-130425000D01*
X155550000Y-132999765D02*
X146920000Y-132999765D01*
X155550000Y-133354050D02*
X146920000Y-133354050D01*
X155550000Y-121895000D02*
X146920000Y-121895000D01*
X146920000Y-122805000D02*
X146510000Y-122805000D01*
X144350000Y-134655000D02*
X144350000Y-133325000D01*
X155550000Y-134062620D02*
X146920000Y-134062620D01*
X155550000Y-119295000D02*
X146920000Y-119295000D01*
X146920000Y-127885000D02*
X146510000Y-127885000D01*
X155550000Y-124435000D02*
X146920000Y-124435000D01*
X155550000Y-132763575D02*
X146920000Y-132763575D01*
X155550000Y-133235955D02*
X146920000Y-133235955D01*
X155550000Y-133826430D02*
X146920000Y-133826430D01*
X155550000Y-133708335D02*
X146920000Y-133708335D01*
X146920000Y-128605000D02*
X146510000Y-128605000D01*
X155550000Y-134655000D02*
X155550000Y-119295000D01*
X155550000Y-134298810D02*
X146920000Y-134298810D01*
X155550000Y-133944525D02*
X146920000Y-133944525D01*
X155550000Y-132881670D02*
X146920000Y-132881670D01*
X155550000Y-132527385D02*
X146920000Y-132527385D01*
X155550000Y-132173100D02*
X146920000Y-132173100D01*
X146920000Y-125345000D02*
X146510000Y-125345000D01*
X146920000Y-123525000D02*
X146510000Y-123525000D01*
X155550000Y-134180715D02*
X146920000Y-134180715D01*
%TO.C,R2*%
X98332936Y-102510000D02*
X99787064Y-102510000D01*
X98332936Y-100690000D02*
X99787064Y-100690000D01*
%TO.C,U1*%
X156160660Y-133372500D02*
X92660000Y-133372500D01*
X160460000Y-138372500D02*
X87460000Y-138372500D01*
X87460000Y-138372500D02*
X87460000Y-113372500D01*
X164600000Y-107732500D02*
X85120000Y-107732500D01*
X90960000Y-107372500D02*
X93960000Y-107372500D01*
X84320000Y-107732500D02*
X84320000Y-144012500D01*
X156660000Y-118872500D02*
X156660000Y-132872500D01*
X92660000Y-118372500D02*
X156160000Y-118372500D01*
X84330000Y-107732500D02*
X85120000Y-107732500D01*
X87460000Y-113372500D02*
X160460000Y-113372500D01*
X160460000Y-113372500D02*
X160460000Y-138372500D01*
X164600000Y-144012500D02*
X164600000Y-107732500D01*
X84320000Y-144012500D02*
X164600000Y-144012500D01*
X92160280Y-132871820D02*
X92160280Y-118872500D01*
X156660000Y-118872500D02*
G75*
G03*
X156160000Y-118372500I-500000J0D01*
G01*
X156160660Y-133372140D02*
G75*
G03*
X156661040Y-132871820I40J500340D01*
G01*
X92160280Y-132871820D02*
G75*
G03*
X92660660Y-133372200I500380J0D01*
G01*
X92660660Y-118370960D02*
G75*
G03*
X92160280Y-118871340I0J-500380D01*
G01*
%TO.C,REF\u002A\u002A*%
X124400000Y-97730000D02*
X124400000Y-97850000D01*
X125730000Y-95190000D02*
X127060000Y-95190000D01*
X127060000Y-95190000D02*
X127060000Y-96520000D01*
X124400000Y-97850000D02*
X127060000Y-97850000D01*
X127060000Y-97730000D02*
X127060000Y-97850000D01*
%TO.C,RV1*%
X120965000Y-96959000D02*
X120965000Y-99090000D01*
X114761000Y-103700000D02*
X120965000Y-103700000D01*
X114761000Y-96959000D02*
X120965000Y-96959000D01*
X120965000Y-101570000D02*
X120965000Y-103700000D01*
X114225000Y-99421000D02*
X114225000Y-101240000D01*
%TO.C,REF\u002A\u002A*%
X143450000Y-97730000D02*
X143450000Y-97850000D01*
X144780000Y-95190000D02*
X146110000Y-95190000D01*
X143450000Y-97850000D02*
X146110000Y-97850000D01*
X146110000Y-97730000D02*
X146110000Y-97850000D01*
X146110000Y-95190000D02*
X146110000Y-96520000D01*
X129480000Y-101515000D02*
X129480000Y-104175000D01*
X134680000Y-104175000D02*
X133350000Y-104175000D01*
X132080000Y-101515000D02*
X132080000Y-104175000D01*
X134680000Y-102845000D02*
X134680000Y-104175000D01*
X132080000Y-101515000D02*
X129480000Y-101515000D01*
X132080000Y-104175000D02*
X129480000Y-104175000D01*
%TO.C,R1*%
X98332936Y-106320000D02*
X99787064Y-106320000D01*
X98332936Y-104500000D02*
X99787064Y-104500000D01*
%TO.C,REF\u002A\u002A*%
X107890000Y-148650000D02*
X110550000Y-148650000D01*
X110550000Y-148530000D02*
X110550000Y-148650000D01*
X107890000Y-148530000D02*
X107890000Y-148650000D01*
X109220000Y-145990000D02*
X110550000Y-145990000D01*
X110550000Y-145990000D02*
X110550000Y-147320000D01*
X104140000Y-148530000D02*
X105470000Y-148530000D01*
X102810000Y-151070000D02*
X102810000Y-151190000D01*
X105470000Y-148530000D02*
X105470000Y-149860000D01*
X102810000Y-151190000D02*
X105470000Y-151190000D01*
X105470000Y-151070000D02*
X105470000Y-151190000D01*
%TO.C,D1*%
X87710000Y-106545000D02*
X91770000Y-106545000D01*
X87710000Y-104275000D02*
X87710000Y-106545000D01*
X91770000Y-104275000D02*
X87710000Y-104275000D01*
%TO.C,REF\u002A\u002A*%
X118050000Y-149800000D02*
X118050000Y-149920000D01*
X118050000Y-149920000D02*
X120710000Y-149920000D01*
X120710000Y-147260000D02*
X120710000Y-148590000D01*
X120710000Y-149800000D02*
X120710000Y-149920000D01*
X119380000Y-147260000D02*
X120710000Y-147260000D01*
X100390000Y-145990000D02*
X100390000Y-147320000D01*
X100390000Y-148530000D02*
X100390000Y-148650000D01*
X97730000Y-148530000D02*
X97730000Y-148650000D01*
X97730000Y-148650000D02*
X100390000Y-148650000D01*
X99060000Y-145990000D02*
X100390000Y-145990000D01*
X138370000Y-151070000D02*
X138370000Y-151190000D01*
X139700000Y-148530000D02*
X141030000Y-148530000D01*
X141030000Y-148530000D02*
X141030000Y-149860000D01*
X141030000Y-151070000D02*
X141030000Y-151190000D01*
X138370000Y-151190000D02*
X141030000Y-151190000D01*
X138490000Y-104080000D02*
X138490000Y-105410000D01*
X135830000Y-106620000D02*
X135830000Y-106740000D01*
X135830000Y-106740000D02*
X138490000Y-106740000D01*
X137160000Y-104080000D02*
X138490000Y-104080000D01*
X138490000Y-106620000D02*
X138490000Y-106740000D01*
%TO.C,R3*%
X98332936Y-96880000D02*
X99787064Y-96880000D01*
X98332936Y-98700000D02*
X99787064Y-98700000D01*
%TO.C,D2*%
X91770000Y-100465000D02*
X87710000Y-100465000D01*
X87710000Y-102735000D02*
X91770000Y-102735000D01*
X87710000Y-100465000D02*
X87710000Y-102735000D01*
%TD*%
M02*
