M48
; DRILL file {KiCad (6.0.4-0)} date Thursday, April 21, 2022 at 07:16:49 PM
; FORMAT={-:-/ absolute / metric / decimal}
; #@! TF.CreationDate,2022-04-21T19:16:49-04:00
; #@! TF.GenerationSoftware,Kicad,Pcbnew,(6.0.4-0)
; #@! TF.FileFunction,Plated,1,2,PTH
FMAT,2
METRIC
; #@! TA.AperFunction,Plated,PTH,ViaDrill
T1C0.400
; #@! TA.AperFunction,Plated,PTH,ComponentDrill
T2C1.000
; #@! TA.AperFunction,Plated,PTH,ComponentDrill
T3C1.200
; #@! TA.AperFunction,Plated,PTH,ComponentDrill
T4C2.500
%
G90
G05
T1
X95.25Y-106.68
X102.87Y-134.62
X104.14Y-97.79
X104.14Y-101.6
X104.14Y-105.41
X105.41Y-96.52
X109.22Y-96.52
X109.22Y-102.87
X109.22Y-106.68
X111.76Y-139.7
X125.73Y-101.6
X125.73Y-124.46
T2
X99.06Y-147.32
X104.14Y-149.86
X109.22Y-147.32
X114.3Y-149.86
X119.38Y-148.59
X125.73Y-96.52
X130.78Y-100.33
X130.81Y-102.845
X130.81Y-146.05
X133.32Y-100.33
X133.35Y-102.845
X133.35Y-146.05
X135.86Y-100.33
X135.89Y-146.05
X137.16Y-105.41
X138.4Y-100.33
X138.43Y-146.05
X139.7Y-149.86
X140.94Y-100.33
X140.97Y-146.05
X143.48Y-100.33
X143.51Y-146.05
X144.78Y-96.52
X145.46Y-120.625
X145.46Y-123.165
X145.46Y-125.705
X145.46Y-128.245
X145.46Y-130.785
X145.46Y-133.325
X146.02Y-100.33
X146.05Y-146.05
X148.56Y-100.33
X148.59Y-146.05
X151.1Y-100.33
X151.13Y-146.05
X153.64Y-100.33
X153.67Y-146.05
T3
X92.46Y-110.372
X95.0Y-110.372
X97.54Y-110.372
X100.08Y-110.372
X102.62Y-110.372
X105.16Y-110.372
X107.7Y-110.372
X110.24Y-110.372
X112.78Y-110.372
X115.32Y-110.372
X117.86Y-110.372
X120.4Y-110.372
X122.94Y-110.372
X125.48Y-110.372
X128.02Y-110.372
X130.56Y-110.372
T4
X86.961Y-110.372
X86.961Y-141.373
X161.959Y-141.373
X161.96Y-110.372
T0
M30
