%TF.GenerationSoftware,KiCad,Pcbnew,(6.0.4-0)*%
%TF.CreationDate,2022-04-21T19:16:39-04:00*%
%TF.ProjectId,msp_stuff,6d73705f-7374-4756-9666-2e6b69636164,rev?*%
%TF.SameCoordinates,Original*%
%TF.FileFunction,Soldermask,Top*%
%TF.FilePolarity,Negative*%
%FSLAX46Y46*%
G04 Gerber Fmt 4.6, Leading zero omitted, Abs format (unit mm)*
G04 Created by KiCad (PCBNEW (6.0.4-0)) date 2022-04-21 19:16:39*
%MOMM*%
%LPD*%
G01*
G04 APERTURE LIST*
G04 Aperture macros list*
%AMRoundRect*
0 Rectangle with rounded corners*
0 $1 Rounding radius*
0 $2 $3 $4 $5 $6 $7 $8 $9 X,Y pos of 4 corners*
0 Add a 4 corners polygon primitive as box body*
4,1,4,$2,$3,$4,$5,$6,$7,$8,$9,$2,$3,0*
0 Add four circle primitives for the rounded corners*
1,1,$1+$1,$2,$3*
1,1,$1+$1,$4,$5*
1,1,$1+$1,$6,$7*
1,1,$1+$1,$8,$9*
0 Add four rect primitives between the rounded corners*
20,1,$1+$1,$2,$3,$4,$5,0*
20,1,$1+$1,$4,$5,$6,$7,0*
20,1,$1+$1,$6,$7,$8,$9,0*
20,1,$1+$1,$8,$9,$2,$3,0*%
G04 Aperture macros list end*
%ADD10R,1.700000X1.700000*%
%ADD11O,1.700000X1.700000*%
%ADD12RoundRect,0.250001X-0.462499X-0.624999X0.462499X-0.624999X0.462499X0.624999X-0.462499X0.624999X0*%
%ADD13RoundRect,0.250000X-0.400000X-0.625000X0.400000X-0.625000X0.400000X0.625000X-0.400000X0.625000X0*%
%ADD14C,3.000000*%
%ADD15R,1.800000X2.600000*%
%ADD16O,1.800000X2.600000*%
%ADD17R,2.500000X2.000000*%
%ADD18C,2.000000*%
G04 APERTURE END LIST*
D10*
%TO.C,REF\u002A\u002A*%
X153640000Y-100330000D03*
D11*
X151100000Y-100330000D03*
X148560000Y-100330000D03*
X146020000Y-100330000D03*
X143480000Y-100330000D03*
X140940000Y-100330000D03*
X138400000Y-100330000D03*
X135860000Y-100330000D03*
X133320000Y-100330000D03*
X130780000Y-100330000D03*
%TD*%
D10*
%TO.C,REF\u002A\u002A*%
X114300000Y-149860000D03*
%TD*%
%TO.C,REF\u002A\u002A*%
X153670000Y-146050000D03*
D11*
X151130000Y-146050000D03*
X148590000Y-146050000D03*
X146050000Y-146050000D03*
X143510000Y-146050000D03*
X140970000Y-146050000D03*
X138430000Y-146050000D03*
X135890000Y-146050000D03*
X133350000Y-146050000D03*
X130810000Y-146050000D03*
%TD*%
D12*
%TO.C,D3*%
X88682500Y-97790000D03*
X91657500Y-97790000D03*
%TD*%
D10*
%TO.C,REF\u002A\u002A*%
X145460000Y-133325000D03*
D11*
X145460000Y-130785000D03*
X145460000Y-128245000D03*
X145460000Y-125705000D03*
X145460000Y-123165000D03*
X145460000Y-120625000D03*
%TD*%
D13*
%TO.C,R2*%
X97510000Y-101600000D03*
X100610000Y-101600000D03*
%TD*%
D14*
%TO.C,U1*%
X86960900Y-141373200D03*
X86960900Y-110372500D03*
X161959480Y-141373200D03*
X161960000Y-110372500D03*
D15*
X92460000Y-110372500D03*
D16*
X95000000Y-110372500D03*
X97540000Y-110372500D03*
X100080000Y-110372500D03*
X102620000Y-110372500D03*
X105160000Y-110372500D03*
X107700000Y-110372500D03*
X110240000Y-110372500D03*
X112780000Y-110372500D03*
X115320000Y-110372500D03*
X117860000Y-110372500D03*
X120400000Y-110372500D03*
X122940000Y-110372500D03*
X125480000Y-110372500D03*
X128020000Y-110372500D03*
X130560000Y-110372500D03*
%TD*%
D10*
%TO.C,REF\u002A\u002A*%
X125730000Y-96520000D03*
%TD*%
D17*
%TO.C,RV1*%
X113270000Y-102480000D03*
X121920000Y-100330000D03*
X113270000Y-98180000D03*
%TD*%
D18*
%TO.C,REF\u002A\u002A*%
X82550000Y-97790000D03*
%TD*%
D10*
%TO.C,REF\u002A\u002A*%
X144780000Y-96520000D03*
%TD*%
%TO.C,REF\u002A\u002A*%
X133350000Y-102845000D03*
D11*
X130810000Y-102845000D03*
%TD*%
D18*
%TO.C,REF\u002A\u002A*%
X82550000Y-153670000D03*
%TD*%
D13*
%TO.C,R1*%
X97510000Y-105410000D03*
X100610000Y-105410000D03*
%TD*%
D10*
%TO.C,REF\u002A\u002A*%
X109220000Y-147320000D03*
%TD*%
%TO.C,REF\u002A\u002A*%
X104140000Y-149860000D03*
%TD*%
D18*
%TO.C,REF\u002A\u002A*%
X163830000Y-97790000D03*
%TD*%
D12*
%TO.C,D1*%
X88682500Y-105410000D03*
X91657500Y-105410000D03*
%TD*%
D18*
%TO.C,REF\u002A\u002A*%
X163830000Y-153670000D03*
%TD*%
D10*
%TO.C,REF\u002A\u002A*%
X119380000Y-148590000D03*
%TD*%
%TO.C,REF\u002A\u002A*%
X99060000Y-147320000D03*
%TD*%
%TO.C,REF\u002A\u002A*%
X139700000Y-149860000D03*
%TD*%
%TO.C,REF\u002A\u002A*%
X137160000Y-105410000D03*
%TD*%
D13*
%TO.C,R3*%
X97510000Y-97790000D03*
X100610000Y-97790000D03*
%TD*%
D12*
%TO.C,D2*%
X88682500Y-101600000D03*
X91657500Y-101600000D03*
%TD*%
M02*
