%TF.GenerationSoftware,KiCad,Pcbnew,(6.0.4-0)*%
%TF.CreationDate,2022-04-21T19:16:38-04:00*%
%TF.ProjectId,msp_stuff,6d73705f-7374-4756-9666-2e6b69636164,rev?*%
%TF.SameCoordinates,Original*%
%TF.FileFunction,Copper,L1,Top*%
%TF.FilePolarity,Positive*%
%FSLAX46Y46*%
G04 Gerber Fmt 4.6, Leading zero omitted, Abs format (unit mm)*
G04 Created by KiCad (PCBNEW (6.0.4-0)) date 2022-04-21 19:16:38*
%MOMM*%
%LPD*%
G01*
G04 APERTURE LIST*
G04 Aperture macros list*
%AMRoundRect*
0 Rectangle with rounded corners*
0 $1 Rounding radius*
0 $2 $3 $4 $5 $6 $7 $8 $9 X,Y pos of 4 corners*
0 Add a 4 corners polygon primitive as box body*
4,1,4,$2,$3,$4,$5,$6,$7,$8,$9,$2,$3,0*
0 Add four circle primitives for the rounded corners*
1,1,$1+$1,$2,$3*
1,1,$1+$1,$4,$5*
1,1,$1+$1,$6,$7*
1,1,$1+$1,$8,$9*
0 Add four rect primitives between the rounded corners*
20,1,$1+$1,$2,$3,$4,$5,0*
20,1,$1+$1,$4,$5,$6,$7,0*
20,1,$1+$1,$6,$7,$8,$9,0*
20,1,$1+$1,$8,$9,$2,$3,0*%
G04 Aperture macros list end*
%ADD10C,0.300000*%
%TA.AperFunction,NonConductor*%
%ADD11C,0.300000*%
%TD*%
%TA.AperFunction,NonConductor*%
%ADD12C,0.200000*%
%TD*%
%TA.AperFunction,ComponentPad*%
%ADD13R,1.700000X1.700000*%
%TD*%
%TA.AperFunction,ComponentPad*%
%ADD14O,1.700000X1.700000*%
%TD*%
%TA.AperFunction,SMDPad,CuDef*%
%ADD15RoundRect,0.250001X-0.462499X-0.624999X0.462499X-0.624999X0.462499X0.624999X-0.462499X0.624999X0*%
%TD*%
%TA.AperFunction,SMDPad,CuDef*%
%ADD16RoundRect,0.250000X-0.400000X-0.625000X0.400000X-0.625000X0.400000X0.625000X-0.400000X0.625000X0*%
%TD*%
%TA.AperFunction,ComponentPad*%
%ADD17C,3.000000*%
%TD*%
%TA.AperFunction,ComponentPad*%
%ADD18R,1.800000X2.600000*%
%TD*%
%TA.AperFunction,ComponentPad*%
%ADD19O,1.800000X2.600000*%
%TD*%
%TA.AperFunction,SMDPad,CuDef*%
%ADD20R,2.500000X2.000000*%
%TD*%
%TA.AperFunction,ViaPad*%
%ADD21C,0.800000*%
%TD*%
%TA.AperFunction,Conductor*%
%ADD22C,0.250000*%
%TD*%
%TA.AperFunction,Conductor*%
%ADD23C,0.200000*%
%TD*%
G04 APERTURE END LIST*
D10*
D11*
X155218571Y-87778571D02*
X154361428Y-87778571D01*
X154790000Y-87778571D02*
X154790000Y-86278571D01*
X154647142Y-86492857D01*
X154504285Y-86635714D01*
X154361428Y-86707142D01*
X155790000Y-86421428D02*
X155861428Y-86350000D01*
X156004285Y-86278571D01*
X156361428Y-86278571D01*
X156504285Y-86350000D01*
X156575714Y-86421428D01*
X156647142Y-86564285D01*
X156647142Y-86707142D01*
X156575714Y-86921428D01*
X155718571Y-87778571D01*
X156647142Y-87778571D01*
X157290000Y-87635714D02*
X157361428Y-87707142D01*
X157290000Y-87778571D01*
X157218571Y-87707142D01*
X157290000Y-87635714D01*
X157290000Y-87778571D01*
X157861428Y-86278571D02*
X158861428Y-86278571D01*
X158218571Y-87778571D01*
X159718571Y-86278571D02*
X159861428Y-86278571D01*
X160004285Y-86350000D01*
X160075714Y-86421428D01*
X160147142Y-86564285D01*
X160218571Y-86850000D01*
X160218571Y-87207142D01*
X160147142Y-87492857D01*
X160075714Y-87635714D01*
X160004285Y-87707142D01*
X159861428Y-87778571D01*
X159718571Y-87778571D01*
X159575714Y-87707142D01*
X159504285Y-87635714D01*
X159432857Y-87492857D01*
X159361428Y-87207142D01*
X159361428Y-86850000D01*
X159432857Y-86564285D01*
X159504285Y-86421428D01*
X159575714Y-86350000D01*
X159718571Y-86278571D01*
X161147142Y-86278571D02*
X161290000Y-86278571D01*
X161432857Y-86350000D01*
X161504285Y-86421428D01*
X161575714Y-86564285D01*
X161647142Y-86850000D01*
X161647142Y-87207142D01*
X161575714Y-87492857D01*
X161504285Y-87635714D01*
X161432857Y-87707142D01*
X161290000Y-87778571D01*
X161147142Y-87778571D01*
X161004285Y-87707142D01*
X160932857Y-87635714D01*
X160861428Y-87492857D01*
X160790000Y-87207142D01*
X160790000Y-86850000D01*
X160861428Y-86564285D01*
X160932857Y-86421428D01*
X161004285Y-86350000D01*
X161147142Y-86278571D01*
X162575714Y-86278571D02*
X162718571Y-86278571D01*
X162861428Y-86350000D01*
X162932857Y-86421428D01*
X163004285Y-86564285D01*
X163075714Y-86850000D01*
X163075714Y-87207142D01*
X163004285Y-87492857D01*
X162932857Y-87635714D01*
X162861428Y-87707142D01*
X162718571Y-87778571D01*
X162575714Y-87778571D01*
X162432857Y-87707142D01*
X162361428Y-87635714D01*
X162290000Y-87492857D01*
X162218571Y-87207142D01*
X162218571Y-86850000D01*
X162290000Y-86564285D01*
X162361428Y-86421428D01*
X162432857Y-86350000D01*
X162575714Y-86278571D01*
X164861428Y-87778571D02*
X164861428Y-86778571D01*
X164861428Y-86921428D02*
X164932857Y-86850000D01*
X165075714Y-86778571D01*
X165290000Y-86778571D01*
X165432857Y-86850000D01*
X165504285Y-86992857D01*
X165504285Y-87778571D01*
X165504285Y-86992857D02*
X165575714Y-86850000D01*
X165718571Y-86778571D01*
X165932857Y-86778571D01*
X166075714Y-86850000D01*
X166147142Y-86992857D01*
X166147142Y-87778571D01*
X166861428Y-87778571D02*
X166861428Y-86778571D01*
X166861428Y-86921428D02*
X166932857Y-86850000D01*
X167075714Y-86778571D01*
X167290000Y-86778571D01*
X167432857Y-86850000D01*
X167504285Y-86992857D01*
X167504285Y-87778571D01*
X167504285Y-86992857D02*
X167575714Y-86850000D01*
X167718571Y-86778571D01*
X167932857Y-86778571D01*
X168075714Y-86850000D01*
X168147142Y-86992857D01*
X168147142Y-87778571D01*
D12*
X167640000Y-93479999D02*
X167640000Y-88313580D01*
X154940000Y-93479999D02*
X154940000Y-88313580D01*
X167640000Y-88900000D02*
X154940000Y-88900000D01*
X167640000Y-88900000D02*
X154940000Y-88900000D01*
X167640000Y-88900000D02*
X166513496Y-88313579D01*
X167640000Y-88900000D02*
X166513496Y-89486421D01*
X154940000Y-88900000D02*
X156066504Y-89486421D01*
X154940000Y-88900000D02*
X156066504Y-88313579D01*
D10*
D11*
X180018571Y-129499458D02*
X181018571Y-129499458D01*
X179447142Y-129856601D02*
X180518571Y-130213744D01*
X180518571Y-129285173D01*
X179518571Y-128428030D02*
X179518571Y-128285173D01*
X179590000Y-128142315D01*
X179661428Y-128070887D01*
X179804285Y-127999458D01*
X180090000Y-127928030D01*
X180447142Y-127928030D01*
X180732857Y-127999458D01*
X180875714Y-128070887D01*
X180947142Y-128142315D01*
X181018571Y-128285173D01*
X181018571Y-128428030D01*
X180947142Y-128570887D01*
X180875714Y-128642315D01*
X180732857Y-128713744D01*
X180447142Y-128785173D01*
X180090000Y-128785173D01*
X179804285Y-128713744D01*
X179661428Y-128642315D01*
X179590000Y-128570887D01*
X179518571Y-128428030D01*
X180875714Y-127285173D02*
X180947142Y-127213744D01*
X181018571Y-127285173D01*
X180947142Y-127356601D01*
X180875714Y-127285173D01*
X181018571Y-127285173D01*
X179518571Y-125928030D02*
X179518571Y-126213744D01*
X179590000Y-126356601D01*
X179661428Y-126428030D01*
X179875714Y-126570887D01*
X180161428Y-126642315D01*
X180732857Y-126642315D01*
X180875714Y-126570887D01*
X180947142Y-126499458D01*
X181018571Y-126356601D01*
X181018571Y-126070887D01*
X180947142Y-125928030D01*
X180875714Y-125856601D01*
X180732857Y-125785173D01*
X180375714Y-125785173D01*
X180232857Y-125856601D01*
X180161428Y-125928030D01*
X180090000Y-126070887D01*
X180090000Y-126356601D01*
X180161428Y-126499458D01*
X180232857Y-126570887D01*
X180375714Y-126642315D01*
X180018571Y-124499458D02*
X181018571Y-124499458D01*
X179447142Y-124856601D02*
X180518571Y-125213744D01*
X180518571Y-124285173D01*
X179518571Y-123428030D02*
X179518571Y-123285173D01*
X179590000Y-123142315D01*
X179661428Y-123070887D01*
X179804285Y-122999458D01*
X180090000Y-122928030D01*
X180447142Y-122928030D01*
X180732857Y-122999458D01*
X180875714Y-123070887D01*
X180947142Y-123142315D01*
X181018571Y-123285173D01*
X181018571Y-123428030D01*
X180947142Y-123570887D01*
X180875714Y-123642315D01*
X180732857Y-123713744D01*
X180447142Y-123785173D01*
X180090000Y-123785173D01*
X179804285Y-123713744D01*
X179661428Y-123642315D01*
X179590000Y-123570887D01*
X179518571Y-123428030D01*
X179518571Y-121999458D02*
X179518571Y-121856601D01*
X179590000Y-121713744D01*
X179661428Y-121642315D01*
X179804285Y-121570887D01*
X180090000Y-121499458D01*
X180447142Y-121499458D01*
X180732857Y-121570887D01*
X180875714Y-121642315D01*
X180947142Y-121713744D01*
X181018571Y-121856601D01*
X181018571Y-121999458D01*
X180947142Y-122142315D01*
X180875714Y-122213744D01*
X180732857Y-122285173D01*
X180447142Y-122356601D01*
X180090000Y-122356601D01*
X179804285Y-122285173D01*
X179661428Y-122213744D01*
X179590000Y-122142315D01*
X179518571Y-121999458D01*
X181018571Y-119713744D02*
X180018571Y-119713744D01*
X180161428Y-119713744D02*
X180090000Y-119642315D01*
X180018571Y-119499458D01*
X180018571Y-119285173D01*
X180090000Y-119142315D01*
X180232857Y-119070887D01*
X181018571Y-119070887D01*
X180232857Y-119070887D02*
X180090000Y-118999458D01*
X180018571Y-118856601D01*
X180018571Y-118642315D01*
X180090000Y-118499458D01*
X180232857Y-118428030D01*
X181018571Y-118428030D01*
X181018571Y-117713744D02*
X180018571Y-117713744D01*
X180161428Y-117713744D02*
X180090000Y-117642315D01*
X180018571Y-117499458D01*
X180018571Y-117285173D01*
X180090000Y-117142315D01*
X180232857Y-117070887D01*
X181018571Y-117070887D01*
X180232857Y-117070887D02*
X180090000Y-116999458D01*
X180018571Y-116856601D01*
X180018571Y-116642315D01*
X180090000Y-116499458D01*
X180232857Y-116428030D01*
X181018571Y-116428030D01*
D12*
X173220000Y-104235173D02*
X178386420Y-104235173D01*
X173220000Y-144875173D02*
X178386420Y-144875173D01*
X177800000Y-104235173D02*
X177800000Y-144875173D01*
X177800000Y-104235173D02*
X177800000Y-144875173D01*
X177800000Y-104235173D02*
X177213579Y-105361677D01*
X177800000Y-104235173D02*
X178386421Y-105361677D01*
X177800000Y-144875173D02*
X178386421Y-143748669D01*
X177800000Y-144875173D02*
X177213579Y-143748669D01*
D10*
D11*
X62538571Y-136682500D02*
X62538571Y-135753928D01*
X63110000Y-136253928D01*
X63110000Y-136039642D01*
X63181428Y-135896785D01*
X63252857Y-135825357D01*
X63395714Y-135753928D01*
X63752857Y-135753928D01*
X63895714Y-135825357D01*
X63967142Y-135896785D01*
X64038571Y-136039642D01*
X64038571Y-136468214D01*
X63967142Y-136611071D01*
X63895714Y-136682500D01*
X62538571Y-134468214D02*
X62538571Y-134753928D01*
X62610000Y-134896785D01*
X62681428Y-134968214D01*
X62895714Y-135111071D01*
X63181428Y-135182500D01*
X63752857Y-135182500D01*
X63895714Y-135111071D01*
X63967142Y-135039642D01*
X64038571Y-134896785D01*
X64038571Y-134611071D01*
X63967142Y-134468214D01*
X63895714Y-134396785D01*
X63752857Y-134325357D01*
X63395714Y-134325357D01*
X63252857Y-134396785D01*
X63181428Y-134468214D01*
X63110000Y-134611071D01*
X63110000Y-134896785D01*
X63181428Y-135039642D01*
X63252857Y-135111071D01*
X63395714Y-135182500D01*
X63895714Y-133682500D02*
X63967142Y-133611071D01*
X64038571Y-133682500D01*
X63967142Y-133753928D01*
X63895714Y-133682500D01*
X64038571Y-133682500D01*
X62538571Y-132253928D02*
X62538571Y-132968214D01*
X63252857Y-133039642D01*
X63181428Y-132968214D01*
X63110000Y-132825357D01*
X63110000Y-132468214D01*
X63181428Y-132325357D01*
X63252857Y-132253928D01*
X63395714Y-132182500D01*
X63752857Y-132182500D01*
X63895714Y-132253928D01*
X63967142Y-132325357D01*
X64038571Y-132468214D01*
X64038571Y-132825357D01*
X63967142Y-132968214D01*
X63895714Y-133039642D01*
X62538571Y-131253928D02*
X62538571Y-131111071D01*
X62610000Y-130968214D01*
X62681428Y-130896785D01*
X62824285Y-130825357D01*
X63110000Y-130753928D01*
X63467142Y-130753928D01*
X63752857Y-130825357D01*
X63895714Y-130896785D01*
X63967142Y-130968214D01*
X64038571Y-131111071D01*
X64038571Y-131253928D01*
X63967142Y-131396785D01*
X63895714Y-131468214D01*
X63752857Y-131539642D01*
X63467142Y-131611071D01*
X63110000Y-131611071D01*
X62824285Y-131539642D01*
X62681428Y-131468214D01*
X62610000Y-131396785D01*
X62538571Y-131253928D01*
X62538571Y-129825357D02*
X62538571Y-129682500D01*
X62610000Y-129539642D01*
X62681428Y-129468214D01*
X62824285Y-129396785D01*
X63110000Y-129325357D01*
X63467142Y-129325357D01*
X63752857Y-129396785D01*
X63895714Y-129468214D01*
X63967142Y-129539642D01*
X64038571Y-129682500D01*
X64038571Y-129825357D01*
X63967142Y-129968214D01*
X63895714Y-130039642D01*
X63752857Y-130111071D01*
X63467142Y-130182500D01*
X63110000Y-130182500D01*
X62824285Y-130111071D01*
X62681428Y-130039642D01*
X62610000Y-129968214D01*
X62538571Y-129825357D01*
X62538571Y-128396785D02*
X62538571Y-128253928D01*
X62610000Y-128111071D01*
X62681428Y-128039642D01*
X62824285Y-127968214D01*
X63110000Y-127896785D01*
X63467142Y-127896785D01*
X63752857Y-127968214D01*
X63895714Y-128039642D01*
X63967142Y-128111071D01*
X64038571Y-128253928D01*
X64038571Y-128396785D01*
X63967142Y-128539642D01*
X63895714Y-128611071D01*
X63752857Y-128682500D01*
X63467142Y-128753928D01*
X63110000Y-128753928D01*
X62824285Y-128682500D01*
X62681428Y-128611071D01*
X62610000Y-128539642D01*
X62538571Y-128396785D01*
X64038571Y-126111071D02*
X63038571Y-126111071D01*
X63181428Y-126111071D02*
X63110000Y-126039642D01*
X63038571Y-125896785D01*
X63038571Y-125682500D01*
X63110000Y-125539642D01*
X63252857Y-125468214D01*
X64038571Y-125468214D01*
X63252857Y-125468214D02*
X63110000Y-125396785D01*
X63038571Y-125253928D01*
X63038571Y-125039642D01*
X63110000Y-124896785D01*
X63252857Y-124825357D01*
X64038571Y-124825357D01*
X64038571Y-124111071D02*
X63038571Y-124111071D01*
X63181428Y-124111071D02*
X63110000Y-124039642D01*
X63038571Y-123896785D01*
X63038571Y-123682500D01*
X63110000Y-123539642D01*
X63252857Y-123468214D01*
X64038571Y-123468214D01*
X63252857Y-123468214D02*
X63110000Y-123396785D01*
X63038571Y-123253928D01*
X63038571Y-123039642D01*
X63110000Y-122896785D01*
X63252857Y-122825357D01*
X64038571Y-122825357D01*
D12*
X71890000Y-147932500D02*
X64573580Y-147932500D01*
X71890000Y-111432500D02*
X64573580Y-111432500D01*
X65160000Y-147932500D02*
X65160000Y-111432500D01*
X65160000Y-147932500D02*
X65160000Y-111432500D01*
X65160000Y-147932500D02*
X65746421Y-146805996D01*
X65160000Y-147932500D02*
X64573579Y-146805996D01*
X65160000Y-111432500D02*
X64573579Y-112559004D01*
X65160000Y-111432500D02*
X65746421Y-112559004D01*
D10*
D11*
X173518226Y-100135305D02*
X173514086Y-99421031D01*
X172799398Y-99353745D01*
X172871239Y-99424758D01*
X172943495Y-99567198D01*
X172945565Y-99924335D01*
X172874966Y-100067604D01*
X172803953Y-100139446D01*
X172661512Y-100211701D01*
X172304375Y-100213771D01*
X172161106Y-100143172D01*
X172089265Y-100072159D01*
X172017009Y-99929718D01*
X172014939Y-99572581D01*
X172085538Y-99429313D01*
X172156551Y-99357471D01*
X172165247Y-100857446D02*
X172094234Y-100929287D01*
X172022392Y-100858274D01*
X172093405Y-100786433D01*
X172165247Y-100857446D01*
X172022392Y-100858274D01*
X172031088Y-102358249D02*
X172026119Y-101501120D01*
X172028603Y-101929685D02*
X173528578Y-101920989D01*
X173313468Y-101779377D01*
X173169785Y-101637350D01*
X173097529Y-101494909D01*
X172893185Y-103210408D02*
X172963784Y-103067140D01*
X173034798Y-102995298D01*
X173177238Y-102923043D01*
X173248666Y-102922629D01*
X173391934Y-102993228D01*
X173463776Y-103064241D01*
X173536031Y-103206682D01*
X173537688Y-103492391D01*
X173467088Y-103635660D01*
X173396075Y-103707502D01*
X173253634Y-103779757D01*
X173182207Y-103780171D01*
X173038938Y-103709572D01*
X172967097Y-103638559D01*
X172894841Y-103496118D01*
X172893185Y-103210408D01*
X172820929Y-103067968D01*
X172749088Y-102996955D01*
X172605819Y-102926355D01*
X172320110Y-102928012D01*
X172177669Y-103000267D01*
X172106656Y-103072109D01*
X172036057Y-103215377D01*
X172037713Y-103501087D01*
X172109968Y-103643528D01*
X172181810Y-103714541D01*
X172325079Y-103785140D01*
X172610788Y-103783484D01*
X172753229Y-103711228D01*
X172824242Y-103639387D01*
X172894841Y-103496118D01*
X172049721Y-105572481D02*
X173049704Y-105566684D01*
X172906849Y-105567512D02*
X172978691Y-105638525D01*
X173050946Y-105780966D01*
X173052189Y-105995248D01*
X172981589Y-106138517D01*
X172839149Y-106210772D01*
X172053448Y-106215327D01*
X172839149Y-106210772D02*
X172982417Y-106281371D01*
X173054673Y-106423812D01*
X173055915Y-106638094D01*
X172985316Y-106781363D01*
X172842875Y-106853618D01*
X172057174Y-106858173D01*
X172061315Y-107572447D02*
X173061298Y-107566650D01*
X172918443Y-107567478D02*
X172990285Y-107638491D01*
X173062540Y-107780932D01*
X173063783Y-107995214D01*
X172993183Y-108138483D01*
X172850743Y-108210739D01*
X172065042Y-108215293D01*
X172850743Y-108210739D02*
X172994011Y-108281338D01*
X173066267Y-108423778D01*
X173067509Y-108638061D01*
X172996910Y-108781329D01*
X172854469Y-108853585D01*
X172068768Y-108858140D01*
D12*
X168397221Y-99070334D02*
X170736411Y-99056773D01*
X168427221Y-104245334D02*
X170766411Y-104231773D01*
X170150000Y-99060173D02*
X170180000Y-104235173D01*
X170150000Y-99060173D02*
X170180000Y-104235173D01*
X170150000Y-99060173D02*
X169570119Y-100190057D01*
X170150000Y-99060173D02*
X170742941Y-100183258D01*
X170180000Y-104235173D02*
X170759881Y-103105289D01*
X170180000Y-104235173D02*
X169587059Y-103112088D01*
D10*
D11*
X70158571Y-131944285D02*
X70158571Y-132230000D01*
X70230000Y-132372857D01*
X70301428Y-132444285D01*
X70515714Y-132587142D01*
X70801428Y-132658571D01*
X71372857Y-132658571D01*
X71515714Y-132587142D01*
X71587142Y-132515714D01*
X71658571Y-132372857D01*
X71658571Y-132087142D01*
X71587142Y-131944285D01*
X71515714Y-131872857D01*
X71372857Y-131801428D01*
X71015714Y-131801428D01*
X70872857Y-131872857D01*
X70801428Y-131944285D01*
X70730000Y-132087142D01*
X70730000Y-132372857D01*
X70801428Y-132515714D01*
X70872857Y-132587142D01*
X71015714Y-132658571D01*
X70158571Y-131301428D02*
X70158571Y-130372857D01*
X70730000Y-130872857D01*
X70730000Y-130658571D01*
X70801428Y-130515714D01*
X70872857Y-130444285D01*
X71015714Y-130372857D01*
X71372857Y-130372857D01*
X71515714Y-130444285D01*
X71587142Y-130515714D01*
X71658571Y-130658571D01*
X71658571Y-131087142D01*
X71587142Y-131230000D01*
X71515714Y-131301428D01*
X71515714Y-129730000D02*
X71587142Y-129658571D01*
X71658571Y-129730000D01*
X71587142Y-129801428D01*
X71515714Y-129730000D01*
X71658571Y-129730000D01*
X70158571Y-128301428D02*
X70158571Y-129015714D01*
X70872857Y-129087142D01*
X70801428Y-129015714D01*
X70730000Y-128872857D01*
X70730000Y-128515714D01*
X70801428Y-128372857D01*
X70872857Y-128301428D01*
X71015714Y-128230000D01*
X71372857Y-128230000D01*
X71515714Y-128301428D01*
X71587142Y-128372857D01*
X71658571Y-128515714D01*
X71658571Y-128872857D01*
X71587142Y-129015714D01*
X71515714Y-129087142D01*
X70158571Y-127301428D02*
X70158571Y-127158571D01*
X70230000Y-127015714D01*
X70301428Y-126944285D01*
X70444285Y-126872857D01*
X70730000Y-126801428D01*
X71087142Y-126801428D01*
X71372857Y-126872857D01*
X71515714Y-126944285D01*
X71587142Y-127015714D01*
X71658571Y-127158571D01*
X71658571Y-127301428D01*
X71587142Y-127444285D01*
X71515714Y-127515714D01*
X71372857Y-127587142D01*
X71087142Y-127658571D01*
X70730000Y-127658571D01*
X70444285Y-127587142D01*
X70301428Y-127515714D01*
X70230000Y-127444285D01*
X70158571Y-127301428D01*
X70158571Y-125872857D02*
X70158571Y-125730000D01*
X70230000Y-125587142D01*
X70301428Y-125515714D01*
X70444285Y-125444285D01*
X70730000Y-125372857D01*
X71087142Y-125372857D01*
X71372857Y-125444285D01*
X71515714Y-125515714D01*
X71587142Y-125587142D01*
X71658571Y-125730000D01*
X71658571Y-125872857D01*
X71587142Y-126015714D01*
X71515714Y-126087142D01*
X71372857Y-126158571D01*
X71087142Y-126230000D01*
X70730000Y-126230000D01*
X70444285Y-126158571D01*
X70301428Y-126087142D01*
X70230000Y-126015714D01*
X70158571Y-125872857D01*
X70158571Y-124444285D02*
X70158571Y-124301428D01*
X70230000Y-124158571D01*
X70301428Y-124087142D01*
X70444285Y-124015714D01*
X70730000Y-123944285D01*
X71087142Y-123944285D01*
X71372857Y-124015714D01*
X71515714Y-124087142D01*
X71587142Y-124158571D01*
X71658571Y-124301428D01*
X71658571Y-124444285D01*
X71587142Y-124587142D01*
X71515714Y-124658571D01*
X71372857Y-124730000D01*
X71087142Y-124801428D01*
X70730000Y-124801428D01*
X70444285Y-124730000D01*
X70301428Y-124658571D01*
X70230000Y-124587142D01*
X70158571Y-124444285D01*
X71658571Y-122158571D02*
X70658571Y-122158571D01*
X70801428Y-122158571D02*
X70730000Y-122087142D01*
X70658571Y-121944285D01*
X70658571Y-121730000D01*
X70730000Y-121587142D01*
X70872857Y-121515714D01*
X71658571Y-121515714D01*
X70872857Y-121515714D02*
X70730000Y-121444285D01*
X70658571Y-121301428D01*
X70658571Y-121087142D01*
X70730000Y-120944285D01*
X70872857Y-120872857D01*
X71658571Y-120872857D01*
X71658571Y-120158571D02*
X70658571Y-120158571D01*
X70801428Y-120158571D02*
X70730000Y-120087142D01*
X70658571Y-119944285D01*
X70658571Y-119730000D01*
X70730000Y-119587142D01*
X70872857Y-119515714D01*
X71658571Y-119515714D01*
X70872857Y-119515714D02*
X70730000Y-119444285D01*
X70658571Y-119301428D01*
X70658571Y-119087142D01*
X70730000Y-118944285D01*
X70872857Y-118872857D01*
X71658571Y-118872857D01*
D12*
X77360000Y-93980000D02*
X72193580Y-93980000D01*
X77360000Y-157480000D02*
X72193580Y-157480000D01*
X72780000Y-93980000D02*
X72780000Y-157480000D01*
X72780000Y-93980000D02*
X72780000Y-157480000D01*
X72780000Y-93980000D02*
X72193579Y-95106504D01*
X72780000Y-93980000D02*
X73366421Y-95106504D01*
X72780000Y-157480000D02*
X73366421Y-156353496D01*
X72780000Y-157480000D02*
X72193579Y-156353496D01*
D10*
D11*
X116547142Y-160581428D02*
X116404285Y-160510000D01*
X116332857Y-160438571D01*
X116261428Y-160295714D01*
X116261428Y-160224285D01*
X116332857Y-160081428D01*
X116404285Y-160010000D01*
X116547142Y-159938571D01*
X116832857Y-159938571D01*
X116975714Y-160010000D01*
X117047142Y-160081428D01*
X117118571Y-160224285D01*
X117118571Y-160295714D01*
X117047142Y-160438571D01*
X116975714Y-160510000D01*
X116832857Y-160581428D01*
X116547142Y-160581428D01*
X116404285Y-160652857D01*
X116332857Y-160724285D01*
X116261428Y-160867142D01*
X116261428Y-161152857D01*
X116332857Y-161295714D01*
X116404285Y-161367142D01*
X116547142Y-161438571D01*
X116832857Y-161438571D01*
X116975714Y-161367142D01*
X117047142Y-161295714D01*
X117118571Y-161152857D01*
X117118571Y-160867142D01*
X117047142Y-160724285D01*
X116975714Y-160652857D01*
X116832857Y-160581428D01*
X117975714Y-160581428D02*
X117832857Y-160510000D01*
X117761428Y-160438571D01*
X117690000Y-160295714D01*
X117690000Y-160224285D01*
X117761428Y-160081428D01*
X117832857Y-160010000D01*
X117975714Y-159938571D01*
X118261428Y-159938571D01*
X118404285Y-160010000D01*
X118475714Y-160081428D01*
X118547142Y-160224285D01*
X118547142Y-160295714D01*
X118475714Y-160438571D01*
X118404285Y-160510000D01*
X118261428Y-160581428D01*
X117975714Y-160581428D01*
X117832857Y-160652857D01*
X117761428Y-160724285D01*
X117690000Y-160867142D01*
X117690000Y-161152857D01*
X117761428Y-161295714D01*
X117832857Y-161367142D01*
X117975714Y-161438571D01*
X118261428Y-161438571D01*
X118404285Y-161367142D01*
X118475714Y-161295714D01*
X118547142Y-161152857D01*
X118547142Y-160867142D01*
X118475714Y-160724285D01*
X118404285Y-160652857D01*
X118261428Y-160581428D01*
X119190000Y-161295714D02*
X119261428Y-161367142D01*
X119190000Y-161438571D01*
X119118571Y-161367142D01*
X119190000Y-161295714D01*
X119190000Y-161438571D01*
X119975714Y-161438571D02*
X120261428Y-161438571D01*
X120404285Y-161367142D01*
X120475714Y-161295714D01*
X120618571Y-161081428D01*
X120690000Y-160795714D01*
X120690000Y-160224285D01*
X120618571Y-160081428D01*
X120547142Y-160010000D01*
X120404285Y-159938571D01*
X120118571Y-159938571D01*
X119975714Y-160010000D01*
X119904285Y-160081428D01*
X119832857Y-160224285D01*
X119832857Y-160581428D01*
X119904285Y-160724285D01*
X119975714Y-160795714D01*
X120118571Y-160867142D01*
X120404285Y-160867142D01*
X120547142Y-160795714D01*
X120618571Y-160724285D01*
X120690000Y-160581428D01*
X121618571Y-159938571D02*
X121761428Y-159938571D01*
X121904285Y-160010000D01*
X121975714Y-160081428D01*
X122047142Y-160224285D01*
X122118571Y-160510000D01*
X122118571Y-160867142D01*
X122047142Y-161152857D01*
X121975714Y-161295714D01*
X121904285Y-161367142D01*
X121761428Y-161438571D01*
X121618571Y-161438571D01*
X121475714Y-161367142D01*
X121404285Y-161295714D01*
X121332857Y-161152857D01*
X121261428Y-160867142D01*
X121261428Y-160510000D01*
X121332857Y-160224285D01*
X121404285Y-160081428D01*
X121475714Y-160010000D01*
X121618571Y-159938571D01*
X123047142Y-159938571D02*
X123190000Y-159938571D01*
X123332857Y-160010000D01*
X123404285Y-160081428D01*
X123475714Y-160224285D01*
X123547142Y-160510000D01*
X123547142Y-160867142D01*
X123475714Y-161152857D01*
X123404285Y-161295714D01*
X123332857Y-161367142D01*
X123190000Y-161438571D01*
X123047142Y-161438571D01*
X122904285Y-161367142D01*
X122832857Y-161295714D01*
X122761428Y-161152857D01*
X122690000Y-160867142D01*
X122690000Y-160510000D01*
X122761428Y-160224285D01*
X122832857Y-160081428D01*
X122904285Y-160010000D01*
X123047142Y-159938571D01*
X124475714Y-159938571D02*
X124618571Y-159938571D01*
X124761428Y-160010000D01*
X124832857Y-160081428D01*
X124904285Y-160224285D01*
X124975714Y-160510000D01*
X124975714Y-160867142D01*
X124904285Y-161152857D01*
X124832857Y-161295714D01*
X124761428Y-161367142D01*
X124618571Y-161438571D01*
X124475714Y-161438571D01*
X124332857Y-161367142D01*
X124261428Y-161295714D01*
X124190000Y-161152857D01*
X124118571Y-160867142D01*
X124118571Y-160510000D01*
X124190000Y-160224285D01*
X124261428Y-160081428D01*
X124332857Y-160010000D01*
X124475714Y-159938571D01*
X126761428Y-161438571D02*
X126761428Y-160438571D01*
X126761428Y-160581428D02*
X126832857Y-160510000D01*
X126975714Y-160438571D01*
X127190000Y-160438571D01*
X127332857Y-160510000D01*
X127404285Y-160652857D01*
X127404285Y-161438571D01*
X127404285Y-160652857D02*
X127475714Y-160510000D01*
X127618571Y-160438571D01*
X127832857Y-160438571D01*
X127975714Y-160510000D01*
X128047142Y-160652857D01*
X128047142Y-161438571D01*
X128761428Y-161438571D02*
X128761428Y-160438571D01*
X128761428Y-160581428D02*
X128832857Y-160510000D01*
X128975714Y-160438571D01*
X129190000Y-160438571D01*
X129332857Y-160510000D01*
X129404285Y-160652857D01*
X129404285Y-161438571D01*
X129404285Y-160652857D02*
X129475714Y-160510000D01*
X129618571Y-160438571D01*
X129832857Y-160438571D01*
X129975714Y-160510000D01*
X130047142Y-160652857D01*
X130047142Y-161438571D01*
D12*
X78740000Y-157980000D02*
X78740000Y-163146420D01*
X167640000Y-157980000D02*
X167640000Y-163146420D01*
X78740000Y-162560000D02*
X167640000Y-162560000D01*
X78740000Y-162560000D02*
X167640000Y-162560000D01*
X78740000Y-162560000D02*
X79866504Y-163146421D01*
X78740000Y-162560000D02*
X79866504Y-161973579D01*
X167640000Y-162560000D02*
X166513496Y-161973579D01*
X167640000Y-162560000D02*
X166513496Y-163146421D01*
D10*
D11*
X117817142Y-164391428D02*
X117674285Y-164320000D01*
X117602857Y-164248571D01*
X117531428Y-164105714D01*
X117531428Y-164034285D01*
X117602857Y-163891428D01*
X117674285Y-163820000D01*
X117817142Y-163748571D01*
X118102857Y-163748571D01*
X118245714Y-163820000D01*
X118317142Y-163891428D01*
X118388571Y-164034285D01*
X118388571Y-164105714D01*
X118317142Y-164248571D01*
X118245714Y-164320000D01*
X118102857Y-164391428D01*
X117817142Y-164391428D01*
X117674285Y-164462857D01*
X117602857Y-164534285D01*
X117531428Y-164677142D01*
X117531428Y-164962857D01*
X117602857Y-165105714D01*
X117674285Y-165177142D01*
X117817142Y-165248571D01*
X118102857Y-165248571D01*
X118245714Y-165177142D01*
X118317142Y-165105714D01*
X118388571Y-164962857D01*
X118388571Y-164677142D01*
X118317142Y-164534285D01*
X118245714Y-164462857D01*
X118102857Y-164391428D01*
X119317142Y-163748571D02*
X119460000Y-163748571D01*
X119602857Y-163820000D01*
X119674285Y-163891428D01*
X119745714Y-164034285D01*
X119817142Y-164320000D01*
X119817142Y-164677142D01*
X119745714Y-164962857D01*
X119674285Y-165105714D01*
X119602857Y-165177142D01*
X119460000Y-165248571D01*
X119317142Y-165248571D01*
X119174285Y-165177142D01*
X119102857Y-165105714D01*
X119031428Y-164962857D01*
X118960000Y-164677142D01*
X118960000Y-164320000D01*
X119031428Y-164034285D01*
X119102857Y-163891428D01*
X119174285Y-163820000D01*
X119317142Y-163748571D01*
X120460000Y-165105714D02*
X120531428Y-165177142D01*
X120460000Y-165248571D01*
X120388571Y-165177142D01*
X120460000Y-165105714D01*
X120460000Y-165248571D01*
X121888571Y-163748571D02*
X121174285Y-163748571D01*
X121102857Y-164462857D01*
X121174285Y-164391428D01*
X121317142Y-164320000D01*
X121674285Y-164320000D01*
X121817142Y-164391428D01*
X121888571Y-164462857D01*
X121960000Y-164605714D01*
X121960000Y-164962857D01*
X121888571Y-165105714D01*
X121817142Y-165177142D01*
X121674285Y-165248571D01*
X121317142Y-165248571D01*
X121174285Y-165177142D01*
X121102857Y-165105714D01*
X122888571Y-163748571D02*
X123031428Y-163748571D01*
X123174285Y-163820000D01*
X123245714Y-163891428D01*
X123317142Y-164034285D01*
X123388571Y-164320000D01*
X123388571Y-164677142D01*
X123317142Y-164962857D01*
X123245714Y-165105714D01*
X123174285Y-165177142D01*
X123031428Y-165248571D01*
X122888571Y-165248571D01*
X122745714Y-165177142D01*
X122674285Y-165105714D01*
X122602857Y-164962857D01*
X122531428Y-164677142D01*
X122531428Y-164320000D01*
X122602857Y-164034285D01*
X122674285Y-163891428D01*
X122745714Y-163820000D01*
X122888571Y-163748571D01*
X124317142Y-163748571D02*
X124460000Y-163748571D01*
X124602857Y-163820000D01*
X124674285Y-163891428D01*
X124745714Y-164034285D01*
X124817142Y-164320000D01*
X124817142Y-164677142D01*
X124745714Y-164962857D01*
X124674285Y-165105714D01*
X124602857Y-165177142D01*
X124460000Y-165248571D01*
X124317142Y-165248571D01*
X124174285Y-165177142D01*
X124102857Y-165105714D01*
X124031428Y-164962857D01*
X123960000Y-164677142D01*
X123960000Y-164320000D01*
X124031428Y-164034285D01*
X124102857Y-163891428D01*
X124174285Y-163820000D01*
X124317142Y-163748571D01*
X125745714Y-163748571D02*
X125888571Y-163748571D01*
X126031428Y-163820000D01*
X126102857Y-163891428D01*
X126174285Y-164034285D01*
X126245714Y-164320000D01*
X126245714Y-164677142D01*
X126174285Y-164962857D01*
X126102857Y-165105714D01*
X126031428Y-165177142D01*
X125888571Y-165248571D01*
X125745714Y-165248571D01*
X125602857Y-165177142D01*
X125531428Y-165105714D01*
X125460000Y-164962857D01*
X125388571Y-164677142D01*
X125388571Y-164320000D01*
X125460000Y-164034285D01*
X125531428Y-163891428D01*
X125602857Y-163820000D01*
X125745714Y-163748571D01*
X128031428Y-165248571D02*
X128031428Y-164248571D01*
X128031428Y-164391428D02*
X128102857Y-164320000D01*
X128245714Y-164248571D01*
X128460000Y-164248571D01*
X128602857Y-164320000D01*
X128674285Y-164462857D01*
X128674285Y-165248571D01*
X128674285Y-164462857D02*
X128745714Y-164320000D01*
X128888571Y-164248571D01*
X129102857Y-164248571D01*
X129245714Y-164320000D01*
X129317142Y-164462857D01*
X129317142Y-165248571D01*
X130031428Y-165248571D02*
X130031428Y-164248571D01*
X130031428Y-164391428D02*
X130102857Y-164320000D01*
X130245714Y-164248571D01*
X130460000Y-164248571D01*
X130602857Y-164320000D01*
X130674285Y-164462857D01*
X130674285Y-165248571D01*
X130674285Y-164462857D02*
X130745714Y-164320000D01*
X130888571Y-164248571D01*
X131102857Y-164248571D01*
X131245714Y-164320000D01*
X131317142Y-164462857D01*
X131317142Y-165248571D01*
D12*
X164710000Y-163672500D02*
X164710000Y-166956420D01*
X84210000Y-163672500D02*
X84210000Y-166956420D01*
X164710000Y-166370000D02*
X84210000Y-166370000D01*
X164710000Y-166370000D02*
X84210000Y-166370000D01*
X164710000Y-166370000D02*
X163583496Y-165783579D01*
X164710000Y-166370000D02*
X163583496Y-166956421D01*
X84210000Y-166370000D02*
X85336504Y-166956421D01*
X84210000Y-166370000D02*
X85336504Y-165783579D01*
D13*
%TO.P,REF\u002A\u002A,1*%
%TO.N,Net-(U1-Pad4)*%
X153640000Y-100330000D03*
D14*
%TO.P,REF\u002A\u002A,2*%
%TO.N,Net-(U1-Pad6)*%
X151100000Y-100330000D03*
%TO.P,REF\u002A\u002A,3*%
%TO.N,N/C*%
X148560000Y-100330000D03*
%TO.P,REF\u002A\u002A,4*%
%TO.N,Net-(U1-Pad11)*%
X146020000Y-100330000D03*
%TO.P,REF\u002A\u002A,5*%
%TO.N,Net-(U1-Pad12)*%
X143480000Y-100330000D03*
%TO.P,REF\u002A\u002A,6*%
%TO.N,Net-(U1-Pad13)*%
X140940000Y-100330000D03*
%TO.P,REF\u002A\u002A,7*%
%TO.N,N/C*%
X138400000Y-100330000D03*
%TO.P,REF\u002A\u002A,8*%
X135860000Y-100330000D03*
%TO.P,REF\u002A\u002A,9*%
X133320000Y-100330000D03*
%TO.P,REF\u002A\u002A,10*%
%TO.N,+BATT*%
X130780000Y-100330000D03*
%TD*%
D13*
%TO.P,REF\u002A\u002A,1*%
%TO.N,+BATT*%
X114300000Y-149860000D03*
%TD*%
%TO.P,REF\u002A\u002A,1*%
%TO.N,Net-(R3-Pad1)*%
X153670000Y-146050000D03*
D14*
%TO.P,REF\u002A\u002A,2*%
%TO.N,Net-(R2-Pad1)*%
X151130000Y-146050000D03*
%TO.P,REF\u002A\u002A,3*%
%TO.N,Net-(R1-Pad1)*%
X148590000Y-146050000D03*
%TO.P,REF\u002A\u002A,4*%
%TO.N,N/C*%
X146050000Y-146050000D03*
%TO.P,REF\u002A\u002A,5*%
X143510000Y-146050000D03*
%TO.P,REF\u002A\u002A,6*%
X140970000Y-146050000D03*
%TO.P,REF\u002A\u002A,7*%
%TO.N,Net-(U1-Pad14)*%
X138430000Y-146050000D03*
%TO.P,REF\u002A\u002A,8*%
%TO.N,N/C*%
X135890000Y-146050000D03*
%TO.P,REF\u002A\u002A,9*%
X133350000Y-146050000D03*
%TO.P,REF\u002A\u002A,10*%
%TO.N,GND*%
X130810000Y-146050000D03*
%TD*%
D15*
%TO.P,D3,1,K*%
%TO.N,GND*%
X88682500Y-97790000D03*
%TO.P,D3,2,A*%
%TO.N,Net-(D3-Pad2)*%
X91657500Y-97790000D03*
%TD*%
D13*
%TO.P,REF\u002A\u002A,1*%
%TO.N,+BATT*%
X145460000Y-133325000D03*
D14*
%TO.P,REF\u002A\u002A,2*%
X145460000Y-130785000D03*
%TO.P,REF\u002A\u002A,3*%
%TO.N,GND*%
X145460000Y-128245000D03*
%TO.P,REF\u002A\u002A,4*%
%TO.N,N/C*%
X145460000Y-125705000D03*
%TO.P,REF\u002A\u002A,5*%
X145460000Y-123165000D03*
%TO.P,REF\u002A\u002A,6*%
X145460000Y-120625000D03*
%TD*%
D16*
%TO.P,R2,1*%
%TO.N,Net-(D2-Pad2)*%
X97510000Y-101600000D03*
%TO.P,R2,2*%
%TO.N,Net-(R2-Pad1)*%
X100610000Y-101600000D03*
%TD*%
D17*
%TO.P,U1,*%
%TO.N,*%
X86960900Y-141373200D03*
X86960900Y-110372500D03*
X161959480Y-141373200D03*
X161960000Y-110372500D03*
D18*
%TO.P,U1,1,VSS*%
%TO.N,GND*%
X92460000Y-110372500D03*
D19*
%TO.P,U1,2,VDD*%
%TO.N,N/C*%
X95000000Y-110372500D03*
%TO.P,U1,3,Vo*%
%TO.N,Net-(RV1-Pad2)*%
X97540000Y-110372500D03*
%TO.P,U1,4,RS*%
%TO.N,Net-(U1-Pad4)*%
X100080000Y-110372500D03*
%TO.P,U1,5,R/~{W}*%
%TO.N,GND*%
X102620000Y-110372500D03*
%TO.P,U1,6,~{E}*%
%TO.N,Net-(U1-Pad6)*%
X105160000Y-110372500D03*
%TO.P,U1,7,DB0*%
%TO.N,unconnected-(U1-Pad7)*%
X107700000Y-110372500D03*
%TO.P,U1,8,DB1*%
%TO.N,unconnected-(U1-Pad8)*%
X110240000Y-110372500D03*
%TO.P,U1,9,DB2*%
%TO.N,unconnected-(U1-Pad9)*%
X112780000Y-110372500D03*
%TO.P,U1,10,DB3*%
%TO.N,unconnected-(U1-Pad10)*%
X115320000Y-110372500D03*
%TO.P,U1,11,DB4*%
%TO.N,Net-(U1-Pad11)*%
X117860000Y-110372500D03*
%TO.P,U1,12,DB5*%
%TO.N,Net-(U1-Pad12)*%
X120400000Y-110372500D03*
%TO.P,U1,13,DB6*%
%TO.N,Net-(U1-Pad13)*%
X122940000Y-110372500D03*
%TO.P,U1,14,DB7*%
%TO.N,Net-(U1-Pad14)*%
X125480000Y-110372500D03*
%TO.P,U1,15,A/VEE*%
%TO.N,+BATT*%
X128020000Y-110372500D03*
%TO.P,U1,16,K*%
%TO.N,GND*%
X130560000Y-110372500D03*
%TD*%
D13*
%TO.P,REF\u002A\u002A,1*%
%TO.N,N/C*%
X125730000Y-96520000D03*
%TD*%
D20*
%TO.P,RV1,1,1*%
%TO.N,N/C*%
X113270000Y-102480000D03*
%TO.P,RV1,2,2*%
%TO.N,Net-(RV1-Pad2)*%
X121920000Y-100330000D03*
%TO.P,RV1,3,3*%
%TO.N,GND*%
X113270000Y-98180000D03*
%TD*%
D13*
%TO.P,REF\u002A\u002A,1*%
%TO.N,N/C*%
X144780000Y-96520000D03*
%TD*%
%TO.P,REF\u002A\u002A,1*%
%TO.N,GND*%
X133350000Y-102845000D03*
D14*
%TO.P,REF\u002A\u002A,2*%
%TO.N,N/C*%
X130810000Y-102845000D03*
%TD*%
D16*
%TO.P,R1,1*%
%TO.N,Net-(D1-Pad2)*%
X97510000Y-105410000D03*
%TO.P,R1,2*%
%TO.N,Net-(R1-Pad1)*%
X100610000Y-105410000D03*
%TD*%
D13*
%TO.P,REF\u002A\u002A,1*%
%TO.N,+BATT*%
X109220000Y-147320000D03*
%TD*%
%TO.P,REF\u002A\u002A,1*%
%TO.N,+BATT*%
X104140000Y-149860000D03*
%TD*%
D15*
%TO.P,D1,1,K*%
%TO.N,GND*%
X88682500Y-105410000D03*
%TO.P,D1,2,A*%
%TO.N,Net-(D1-Pad2)*%
X91657500Y-105410000D03*
%TD*%
D13*
%TO.P,REF\u002A\u002A,1*%
%TO.N,GND*%
X119380000Y-148590000D03*
%TD*%
%TO.P,REF\u002A\u002A,1*%
%TO.N,+BATT*%
X99060000Y-147320000D03*
%TD*%
%TO.P,REF\u002A\u002A,1*%
%TO.N,GND*%
X139700000Y-149860000D03*
%TD*%
%TO.P,REF\u002A\u002A,1*%
%TO.N,+BATT*%
X137160000Y-105410000D03*
%TD*%
D16*
%TO.P,R3,1*%
%TO.N,Net-(D3-Pad2)*%
X97510000Y-97790000D03*
%TO.P,R3,2*%
%TO.N,Net-(R3-Pad1)*%
X100610000Y-97790000D03*
%TD*%
D15*
%TO.P,D2,1,K*%
%TO.N,GND*%
X88682500Y-101600000D03*
%TO.P,D2,2,A*%
%TO.N,Net-(D2-Pad2)*%
X91657500Y-101600000D03*
%TD*%
D21*
%TO.N,*%
X125730000Y-101600000D03*
X109220000Y-102870000D03*
X95250000Y-106680000D03*
%TO.N,GND*%
X102870000Y-134620000D03*
X109220000Y-96520000D03*
X105410000Y-96520000D03*
X111760000Y-139700000D03*
%TO.N,+BATT*%
X109220000Y-106680000D03*
%TO.N,Net-(U1-Pad14)*%
X125730000Y-124460000D03*
%TO.N,Net-(R1-Pad1)*%
X104140000Y-105410000D03*
%TO.N,Net-(R2-Pad1)*%
X104140000Y-101600000D03*
%TO.N,Net-(R3-Pad1)*%
X104140000Y-97790000D03*
%TD*%
D22*
%TO.N,*%
X142240000Y-128925000D02*
X142240000Y-142240000D01*
D23*
X140970000Y-143510000D02*
X140970000Y-127655000D01*
D22*
X142240000Y-142240000D02*
X146050000Y-146050000D01*
X145460000Y-125705000D02*
X142240000Y-128925000D01*
X95000000Y-106930000D02*
X95250000Y-106680000D01*
D23*
X140970000Y-143510000D02*
X143510000Y-146050000D01*
D22*
X95000000Y-110372500D02*
X95000000Y-106930000D01*
D23*
X109220000Y-102870000D02*
X109610000Y-102480000D01*
X112279639Y-102870000D02*
X112969820Y-102179819D01*
X109610000Y-102480000D02*
X113270000Y-102480000D01*
X140970000Y-127655000D02*
X145460000Y-123165000D01*
D22*
%TO.N,GND*%
X93980000Y-95250000D02*
X104140000Y-95250000D01*
X99060000Y-140970000D02*
X92710000Y-134620000D01*
X113030000Y-140970000D02*
X109220000Y-140970000D01*
X81280000Y-102870000D02*
X82550000Y-101600000D01*
X130810000Y-146050000D02*
X134620000Y-149860000D01*
X82550000Y-101600000D02*
X86360000Y-97790000D01*
X88682500Y-97790000D02*
X86360000Y-97790000D01*
X88682500Y-105410000D02*
X81280000Y-105410000D01*
X119380000Y-148590000D02*
X128270000Y-148590000D01*
X81280000Y-107950000D02*
X81280000Y-102870000D01*
X128270000Y-148590000D02*
X130810000Y-146050000D01*
X110880000Y-98180000D02*
X109220000Y-96520000D01*
X134620000Y-149860000D02*
X139700000Y-149860000D01*
X87630000Y-95250000D02*
X93980000Y-95250000D01*
X92460000Y-134370000D02*
X92460000Y-110372500D01*
X86360000Y-97790000D02*
X86360000Y-96520000D01*
X130810000Y-146050000D02*
X125730000Y-140970000D01*
X92710000Y-134620000D02*
X92460000Y-134370000D01*
X130560000Y-108200000D02*
X133350000Y-105410000D01*
X125730000Y-140970000D02*
X113030000Y-140970000D01*
X81280000Y-107950000D02*
X81280000Y-123190000D01*
X104140000Y-95250000D02*
X105410000Y-96520000D01*
X109220000Y-140970000D02*
X99060000Y-140970000D01*
X111760000Y-139700000D02*
X113030000Y-140970000D01*
X130560000Y-110372500D02*
X130560000Y-108200000D01*
X86360000Y-96520000D02*
X87630000Y-95250000D01*
X88682500Y-101600000D02*
X82550000Y-101600000D01*
X109220000Y-140970000D02*
X102870000Y-134620000D01*
X113270000Y-98180000D02*
X110880000Y-98180000D01*
X133350000Y-105410000D02*
X133350000Y-102845000D01*
X81280000Y-123190000D02*
X92710000Y-134620000D01*
%TO.N,Net-(D1-Pad2)*%
X97510000Y-105410000D02*
X91657500Y-105410000D01*
%TO.N,Net-(D2-Pad2)*%
X97510000Y-101600000D02*
X91657500Y-101600000D01*
%TO.N,Net-(D3-Pad2)*%
X97510000Y-97790000D02*
X91657500Y-97790000D01*
%TO.N,+BATT*%
X124460000Y-106680000D02*
X109220000Y-106680000D01*
X124460000Y-106650000D02*
X124460000Y-106680000D01*
X130780000Y-100330000D02*
X124460000Y-106650000D01*
%TO.N,Net-(RV1-Pad2)*%
X97540000Y-110372500D02*
X99962500Y-107950000D01*
X105410000Y-107950000D02*
X106680000Y-106680000D01*
X109220000Y-95250000D02*
X106680000Y-97790000D01*
X99962500Y-107950000D02*
X105410000Y-107950000D01*
X120650000Y-95250000D02*
X121920000Y-96520000D01*
X106680000Y-106680000D02*
X106680000Y-97790000D01*
X109220000Y-95250000D02*
X120650000Y-95250000D01*
X121920000Y-96520000D02*
X121920000Y-100330000D01*
%TO.N,Net-(U1-Pad4)*%
X153640000Y-106075718D02*
X153640000Y-100330000D01*
X100080000Y-110372500D02*
X109087500Y-119380000D01*
X109087500Y-119380000D02*
X140335718Y-119380000D01*
X140335718Y-119380000D02*
X153640000Y-106075718D01*
%TO.N,Net-(U1-Pad6)*%
X112897500Y-118110000D02*
X105160000Y-110372500D01*
X147320000Y-104110000D02*
X147320000Y-110490000D01*
X147320000Y-110490000D02*
X139700000Y-118110000D01*
X139700000Y-118110000D02*
X112897500Y-118110000D01*
X151100000Y-100330000D02*
X147320000Y-104110000D01*
%TO.N,Net-(U1-Pad11)*%
X146020000Y-109885717D02*
X146050000Y-109915717D01*
X146020000Y-100330000D02*
X146020000Y-109885717D01*
X124327500Y-116840000D02*
X117860000Y-110372500D01*
X146050000Y-110490000D02*
X139700000Y-116840000D01*
X146050000Y-109915717D02*
X146050000Y-110490000D01*
X139700000Y-116840000D02*
X124327500Y-116840000D01*
%TO.N,Net-(U1-Pad12)*%
X139700000Y-115570000D02*
X125597500Y-115570000D01*
X143480000Y-100330000D02*
X144330000Y-101180000D01*
X144330000Y-101180000D02*
X144330000Y-110940000D01*
X144330000Y-110940000D02*
X139700000Y-115570000D01*
X125597500Y-115570000D02*
X120400000Y-110372500D01*
%TO.N,Net-(U1-Pad13)*%
X143510000Y-104140000D02*
X143510000Y-110490000D01*
X140940000Y-101570000D02*
X143510000Y-104140000D01*
X143510000Y-110490000D02*
X139700000Y-114300000D01*
X139700000Y-114300000D02*
X126867500Y-114300000D01*
X140940000Y-100330000D02*
X140940000Y-101570000D01*
X126867500Y-114300000D02*
X122940000Y-110372500D01*
%TO.N,Net-(U1-Pad14)*%
X138430000Y-137160000D02*
X138430000Y-146050000D01*
X125730000Y-124460000D02*
X138430000Y-137160000D01*
%TO.N,Net-(R1-Pad1)*%
X104140000Y-105410000D02*
X100610000Y-105410000D01*
%TO.N,Net-(R2-Pad1)*%
X100610000Y-101600000D02*
X104140000Y-101600000D01*
%TO.N,Net-(R3-Pad1)*%
X104140000Y-97790000D02*
X100610000Y-97790000D01*
%TD*%
M02*
